# xmcd CD database file
#
# Track frame offsets:
#	150
#	4375
#	32147
#	54130
#	60307
#	78525
#	96725
#	106417
#	132167
#	136945
#	169440
#	210605
#	220882
#	242815
#	259810
#	270125
#	287220
#	305450
#	336917
#
# Disc length: 4674 seconds
#
# Revision: 0
# Processed by: cddbd v1.5.1PL0 Copyright (c) Steve Scherf et al.
# Submitted via: CDex 1.51
#
DISCID=1a124013
DTITLE=irvin mayfield w/ the new orleans jazz orchestra - strange fruit
DYEAR=2005
DGENRE=Jazz
TTITLE0=narration #1
TTITLE1=intro - opening statements
TTITLE2=the beginning of the end
TTITLE3=narration #2
TTITLE4=oral traditions of the south
TTITLE5=the elder negro speaks
TTITLE6=narration #3
TTITLE7=color lines
TTITLE8=narration #4
TTITLE9=ballad of the long hot night
TTITLE10=narration #5
TTITLE11=narration #6
TTITLE12=the lynch mob (you better run boy run)
TTITLE13=hoopin' and hollerin
TTITLE14=narration #7
TTITLE15=the prayer - final words
TTITLE16=narration #8
TTITLE17=the sacrafice - the mourning
TTITLE18=narration #9 - falling leaves yet growing trees - ah yes the blues
EXTD=YEAR: 2005
EXTT0=
EXTT1=
EXTT2=
EXTT3=
EXTT4=
EXTT5=
EXTT6=
EXTT7=
EXTT8=
EXTT9=
EXTT10=
EXTT11=
EXTT12=
EXTT13=
EXTT14=
EXTT15=
EXTT16=
EXTT17=
EXTT18=
PLAYORDER=
